<svg width="13" height="14" viewBox="0 0 13 14" fill="none" xmlns="http://www.w3.org/2000/svg">
<path d="M6.5 0C4.25994 0 2.4375 1.5701 2.4375 3.5V5.6H1.625C1.19402 5.6 0.780698 5.7475 0.475951 6.01005C0.171205 6.2726 0 6.6287 0 7V12.6C0 12.9713 0.171205 13.3274 0.475951 13.5899C0.780698 13.8525 1.19402 14 1.625 14H11.375C11.806 14 12.2193 13.8525 12.524 13.5899C12.8288 13.3274 13 12.9713 13 12.6V7C13 6.6287 12.8288 6.2726 12.524 6.01005C12.2193 5.7475 11.806 5.6 11.375 5.6H10.5625V3.5C10.5625 1.5701 8.74006 0 6.5 0ZM4.0625 3.5C4.0625 2.3422 5.15613 1.4 6.5 1.4C7.84387 1.4 8.9375 2.3422 8.9375 3.5V5.6H4.0625V3.5ZM7.3125 11.0061V12.6H5.6875V11.0061C5.40344 10.866 5.17535 10.6549 5.0333 10.4008C4.89125 10.1468 4.84192 9.86156 4.89181 9.58284C4.94169 9.30412 5.08846 9.04496 5.31275 8.83955C5.53704 8.63414 5.82832 8.49211 6.14819 8.4322C6.38579 8.3868 6.6322 8.38797 6.86921 8.43561C7.10622 8.48325 7.32779 8.57615 7.51754 8.70744C7.7073 8.83874 7.8604 9.00508 7.96554 9.19418C8.07068 9.38329 8.12517 9.59032 8.125 9.8C8.12453 10.0448 8.04918 10.2852 7.90654 10.497C7.7639 10.7087 7.55901 10.8843 7.3125 11.0061Z" fill="#00C4FF"/>
</svg>
